<svg width="304" height="249" viewBox="0 0 304 249" fill="none" xmlns="http://www.w3.org/2000/svg">
<g filter="url(#filter0_i_207_248)">
<path d="M211.396 0L150.672 84.1422L81.9775 7.99541L121.448 105.463L0 113.078L118.032 133.638L64.5194 228.821L150.672 158.385L211.396 249L185.588 137.826L304 122.216L185.588 100.894L211.396 0Z" fill="#9CDC53"/>
<path d="M211.396 0L150.672 84.1422L81.9775 7.99541L121.448 105.463L0 113.078L118.032 133.638L64.5194 228.821L150.672 158.385L211.396 249L185.588 137.826L304 122.216L185.588 100.894L211.396 0Z" fill="url(#paint0_linear_207_248)"/>
</g>
<defs>
<filter id="filter0_i_207_248" x="0" y="0" width="304" height="253" filterUnits="userSpaceOnUse" color-interpolation-filters="sRGB">
<feFlood flood-opacity="0" result="BackgroundImageFix"/>
<feBlend mode="normal" in="SourceGraphic" in2="BackgroundImageFix" result="shape"/>
<feColorMatrix in="SourceAlpha" type="matrix" values="0 0 0 0 0 0 0 0 0 0 0 0 0 0 0 0 0 0 127 0" result="hardAlpha"/>
<feOffset dy="4"/>
<feGaussianBlur stdDeviation="2"/>
<feComposite in2="hardAlpha" operator="arithmetic" k2="-1" k3="1"/>
<feColorMatrix type="matrix" values="0 0 0 0 1 0 0 0 0 1 0 0 0 0 1 0 0 0 0.5 0"/>
<feBlend mode="normal" in2="shape" result="effect1_innerShadow_207_248"/>
</filter>
<linearGradient id="paint0_linear_207_248" x1="225" y1="49.5" x2="110" y2="249" gradientUnits="userSpaceOnUse">
<stop stop-color="white" stop-opacity="0"/>
<stop offset="1" stop-color="#3D0A59"/>
</linearGradient>
</defs>
</svg>
